<?xml version="1.0" encoding="UTF-8" standalone="no"?>
<!-- Created with Inkscape (http://www.inkscape.org/) -->

<svg
   xmlns:dc="http://purl.org/dc/elements/1.1/"
   xmlns:cc="http://creativecommons.org/ns#"
   xmlns:rdf="http://www.w3.org/1999/02/22-rdf-syntax-ns#"
   xmlns:svg="http://www.w3.org/2000/svg"
   xmlns="http://www.w3.org/2000/svg"
   xmlns:sodipodi="http://sodipodi.sourceforge.net/DTD/sodipodi-0.dtd"
   xmlns:inkscape="http://www.inkscape.org/namespaces/inkscape"
   width="640"
   height="316.73575"
   id="svg3327"
   version="1.1"
   inkscape:version="0.48.1 r9760"
   sodipodi:docname="New document 2">
  <defs
     id="defs3329" />
  <sodipodi:namedview
     id="base"
     pagecolor="#ffffff"
     bordercolor="#666666"
     borderopacity="1.0"
     inkscape:pageopacity="0.0"
     inkscape:pageshadow="2"
     inkscape:zoom="0.77472527"
     inkscape:cx="319.99996"
     inkscape:cy="240"
     inkscape:current-layer="layer1"
     inkscape:document-units="px"
     showgrid="false"
     fit-margin-top="0"
     fit-margin-left="0"
     fit-margin-right="0"
     fit-margin-bottom="0"
     inkscape:window-width="1440"
     inkscape:window-height="876"
     inkscape:window-x="1280"
     inkscape:window-y="24"
     inkscape:window-maximized="1" />
  <metadata
     id="metadata3332">
    <rdf:RDF>
      <cc:Work
         rdf:about="">
        <dc:format>image/svg+xml</dc:format>
        <dc:type
           rdf:resource="http://purl.org/dc/dcmitype/StillImage" />
        <dc:title></dc:title>
      </cc:Work>
    </rdf:RDF>
  </metadata>
  <g
     id="layer1"
     inkscape:label="Layer 1"
     inkscape:groupmode="layer"
     transform="translate(-3.6639532e-5,-163.26425)">
    <g
       id="g4764"
       transform="matrix(0.64646462,0,0,0.64646462,-733.81128,-142.85849)">
      <path
         style="fill:#ffff00;fill-rule:nonzero;stroke:#073763;stroke-width:2.22894621;stroke-linecap:butt;stroke-linejoin:round"
         inkscape:connector-curvature="0"
         id="path4342"
         d="m 1297.5009,628.00959 -59.1006,0 c -20.7625,0 -37.5937,16.83131 -37.5937,37.59374 l 0,26.76419 -10.2951,0 21.0361,21.57058 21.0362,-21.57058 -10.2951,0 0,-26.76419 0,0 c 0,-8.89817 7.2134,-16.1116 16.1116,-16.1116 l 59.1006,0 z" />
      <path
         style="fill:#cfe2f3;fill-rule:nonzero;stroke:#073763;stroke-width:2.22894621;stroke-linecap:butt;stroke-linejoin:round"
         inkscape:connector-curvature="0"
         id="path4344"
         d="m 1324.5769,476.81059 616.2421,0 0,485.55921 -616.2421,0 z" />
      <path
         style="fill:#000000;fill-rule:nonzero"
         inkscape:connector-curvature="0"
         id="path4346"
         d="m 1493.3344,512.81141 5.0152,-0.48758 q 0.4527,2.52498 1.8371,3.70911 1.3844,1.18413 3.7352,1.18413 2.4902,0 3.7527,-1.05352 1.2624,-1.05354 1.2624,-2.46404 0,-0.90551 -0.5311,-1.5411 -0.5311,-0.63561 -1.8545,-1.10577 -0.9055,-0.31345 -4.1271,-1.11447 -4.1444,-1.02741 -5.8161,-2.52499 -2.3509,-2.10704 -2.3509,-5.13702 0,-1.95032 1.1058,-3.64816 1.1058,-1.69783 3.1867,-2.58592 2.0809,-0.8881 5.0238,-0.8881 4.8062,0 7.2354,2.10706 2.4292,2.10704 2.5511,5.6246 l -5.1544,0.22638 q -0.3309,-1.96775 -1.4192,-2.82972 -1.0884,-0.86197 -3.2651,-0.86197 -2.2464,0 -3.5176,0.92291 -0.8184,0.59207 -0.8184,1.58465 0,0.90551 0.7662,1.54981 0.9752,0.81845 4.7365,1.70654 3.7614,0.8881 5.5637,1.83715 1.8023,0.94903 2.821,2.59463 1.0187,1.64558 1.0187,4.06607 0,2.19412 -1.219,4.10962 -1.2189,1.9155 -3.4479,2.84714 -2.2289,0.93163 -5.5549,0.93163 -4.841,0 -7.4357,-2.23765 -2.5946,-2.23766 -3.0996,-6.52142 z m 25.0234,8.30632 0,-25.5284 7.7143,0 4.632,17.41364 4.5798,-17.41364 7.7316,0 0,25.5284 -4.7887,0 0,-20.09535 -5.0674,20.09535 -4.9629,0 -5.0499,-20.09535 0,20.09535 -4.7888,0 z m 52.7982,0 -5.6072,0 -2.229,-5.79875 -10.2043,0 -2.1071,5.79875 -5.4679,0 9.9432,-25.5284 5.4505,0 10.2218,25.5284 z m -9.4904,-10.09992 -3.5176,-9.47302 -3.4479,9.47302 6.9655,0 z m 12.2417,10.09992 0,-25.5284 10.8487,0 q 4.0922,0 5.9468,0.68784 1.8545,0.68783 2.969,2.44661 1.1145,1.75877 1.1145,4.02255 0,2.87325 -1.6891,4.74522 -1.6891,1.87196 -5.05,2.35954 1.6717,0.97517 2.7601,2.14189 1.0883,1.1667 2.9342,4.14444 l 3.117,4.98031 -6.1644,0 -3.7265,-5.55496 q -1.9852,-2.97773 -2.7166,-3.75263 -0.7313,-0.77492 -1.5498,-1.06224 -0.8184,-0.28732 -2.5946,-0.28732 l -1.0448,0 0,10.65715 -5.1545,0 z m 5.1545,-14.73195 3.8136,0 q 3.7091,0 4.632,-0.31344 0.9229,-0.31345 1.4453,-1.07965 0.5224,-0.7662 0.5224,-1.9155 0,-1.28861 -0.6878,-2.08093 -0.6878,-0.79232 -1.9416,-1.00129 -0.6269,-0.087 -3.7614,-0.087 l -4.0225,0 0,6.47788 z m 26.3294,14.73195 0,-21.20982 -7.5749,0 0,-4.31858 20.2869,0 0,4.31858 -7.5576,0 0,21.20982 -5.1544,0 z m 15.4459,-6.80874 0,-4.89323 9.6123,0 0,4.89323 -9.6123,0 z m 11.4234,-5.79874 q 0,-3.90066 1.1667,-6.54753 0.8707,-1.95033 2.3769,-3.50015 1.5063,-1.54981 3.2999,-2.2986 2.3857,-1.00999 5.5027,-1.00999 5.642,0 9.029,3.50015 3.387,3.50013 3.387,9.73422 0,6.18185 -3.3609,9.67328 -3.3608,3.49143 -8.9854,3.49143 -5.6943,0 -9.0551,-3.47401 -3.3608,-3.47403 -3.3608,-9.5688 z m 5.3111,-0.17414 q 0,4.33599 2.0026,6.57365 2.0026,2.23765 5.0848,2.23765 3.0822,0 5.0586,-2.22024 1.9765,-2.22024 1.9765,-6.66071 0,-4.38824 -1.9242,-6.54753 -1.9242,-2.15929 -5.1109,-2.15929 -3.1867,0 -5.1371,2.18541 -1.9503,2.1854 -1.9503,6.59106 z m 23.4388,-12.74678 5.1544,0 0,13.82643 q 0,3.29117 0.1916,4.26633 0.3308,1.56723 1.5759,2.51628 1.2451,0.94904 3.4044,0.94904 2.1941,0 3.3086,-0.8968 1.1144,-0.89681 1.3408,-2.20282 0.2264,-1.30603 0.2264,-4.33601 l 0,-14.12245 5.1545,0 0,13.4085 q 0,4.5972 -0.418,6.49528 -0.4179,1.8981 -1.5411,3.20411 -1.1232,1.30603 -3.0039,2.08094 -1.8806,0.7749 -4.9106,0.7749 -3.6569,0 -5.5462,-0.84456 -1.8894,-0.84456 -2.9865,-2.19411 -1.0971,-1.34957 -1.4453,-2.82972 -0.505,-2.19412 -0.505,-6.47788 l 0,-13.61746 z m 31.5361,25.5284 0,-21.20982 -7.5749,0 0,-4.31858 20.2869,0 0,4.31858 -7.5575,0 0,21.20982 -5.1545,0 z m 16.1773,0 0,-25.31944 5.1544,0 0,21.01826 12.8165,0 0,4.30118 -17.9709,0 z m 21.6452,0 0,-25.5284 18.9286,0 0,4.31858 -13.7742,0 0,5.65943 12.8164,0 0,4.30117 -12.8164,0 0,6.94804 14.2618,0 0,4.30118 -19.4162,0 z m 29.5335,0 0,-21.20982 -7.575,0 0,-4.31858 20.287,0 0,4.31858 -7.5576,0 0,21.20982 -5.1544,0 z" />
      <path
         style="fill:#d9ead3;fill-rule:nonzero;stroke:#073763;stroke-width:2.22894621;stroke-linecap:butt;stroke-linejoin:round"
         inkscape:connector-curvature="0"
         id="path4348"
         d="m 1344.0675,843.82876 0,0 c 0,-11.47354 9.3011,-20.77467 20.7747,-20.77467 l 162.7064,0 c 5.5097,0 10.7939,2.18871 14.6899,6.0848 3.896,3.89597 6.0847,9.18009 6.0847,14.68987 l 0,83.09611 c 0,11.47358 -9.3011,20.77471 -20.7746,20.77471 l -162.7064,0 c -11.4736,0 -20.7747,-9.30113 -20.7747,-20.77471 z" />
      <path
         style="fill:#000000;fill-rule:nonzero"
         inkscape:connector-curvature="0"
         id="path4350"
         d="m 1391.8404,880.90955 0,-15.14986 10.9706,0 0,1.77618 -8.968,0 0,4.64943 8.3934,0 0,1.77621 -8.3934,0 0,5.15444 9.3163,0 0,1.7936 -11.3189,0 z m 17.6749,0 0,-13.37368 -4.9803,0 0,-1.77618 11.998,0 0,1.77618 -5.0151,0 0,13.37368 -2.0026,0 z m 8.8984,0 0,-15.14986 2.0199,0 0,6.21665 7.871,0 0,-6.21665 2.0026,0 0,15.14986 -2.0026,0 0,-7.13958 -7.871,0 0,7.13958 -2.0199,0 z m 15.0105,0 0,-15.14986 10.9706,0 0,1.77618 -8.968,0 0,4.64943 8.3934,0 0,1.77621 -8.3934,0 0,5.15444 9.3163,0 0,1.7936 -11.3189,0 z m 13.8613,0 0,-15.14986 6.7216,0 q 2.02,0 3.0736,0.40051 1.0535,0.40051 1.6804,1.43662 0.6269,1.0361 0.6269,2.28988 0,1.61948 -1.0362,2.72525 -1.0361,1.10575 -3.2302,1.4018 0.801,0.38311 1.219,0.74877 0.8707,0.81847 1.6543,2.01998 l 2.6468,4.12705 -2.5249,0 -2.0026,-3.15188 q -0.8881,-1.35825 -1.4541,-2.08964 -0.5659,-0.73135 -1.0186,-1.01868 -0.4528,-0.28733 -0.9056,-0.3918 -0.3482,-0.087 -1.1318,-0.087 l -2.3161,0 0,6.73907 -2.0025,0 z m 2.0025,-8.46302 4.3012,0 q 1.3757,0 2.1506,-0.28731 0.7749,-0.28734 1.1841,-0.91423 0.4092,-0.6269 0.4092,-1.35829 0,-1.07962 -0.7836,-1.76744 -0.7836,-0.68786 -2.4727,-0.68786 l -4.7888,0 0,5.01513 z m 12.9558,8.46302 0,-15.14986 2.0548,0 7.958,11.89352 0,-11.89352 1.9155,0 0,15.14986 -2.0548,0 -7.958,-11.91093 0,11.91093 -1.9155,0 z m 15.0628,0 0,-15.14986 10.9706,0 0,1.77618 -8.968,0 0,4.64943 8.3933,0 0,1.77621 -8.3933,0 0,5.15444 9.3163,0 0,1.7936 -11.3189,0 z m 17.6923,0 0,-13.37368 -4.9803,0 0,-1.77618 11.998,0 0,1.77618 -5.0152,0 0,13.37368 -2.0025,0 z" />
      <path
         style="fill:#000000;fill-rule:nonzero"
         inkscape:connector-curvature="0"
         id="path4352"
         d="m 1377.7354,904.31349 0,-13.37368 -4.9803,0 0,-1.77618 11.998,0 0,1.77618 -5.0151,0 0,13.37368 -2.0026,0 z m 8.8809,0 0,-15.14986 6.7217,0 q 2.02,0 3.0735,0.40051 1.0535,0.4005 1.6804,1.43662 0.6269,1.03609 0.6269,2.28987 0,1.61949 -1.0361,2.72526 -1.0361,1.10575 -3.2302,1.40179 0.801,0.38312 1.2189,0.74877 0.8707,0.81847 1.6543,2.01999 l 2.6469,4.12705 -2.525,0 -2.0025,-3.15189 q -0.8881,-1.35824 -1.4541,-2.08964 -0.5659,-0.73135 -1.0187,-1.01867 -0.4527,-0.28733 -0.9055,-0.3918 -0.3483,-0.087 -1.1319,-0.087 l -2.316,0 0,6.73907 -2.0026,0 z m 2.0026,-8.46302 4.3012,0 q 1.3757,0 2.1506,-0.28731 0.7749,-0.28735 1.1841,-0.91424 0.4092,-0.62689 0.4092,-1.35829 0,-1.07962 -0.7836,-1.76744 -0.7836,-0.68785 -2.4727,-0.68785 l -4.7888,0 0,5.01513 z m 11.3015,8.46302 5.8335,-15.14986 2.1593,0 6.1993,15.14986 -2.2812,0 -1.7762,-4.59721 -6.3386,0 -1.6543,4.59721 -2.1418,0 z m 4.3708,-6.21669 5.137,0 -1.5672,-4.21408 q -0.7314,-1.89809 -1.0797,-3.13446 -0.296,1.46275 -0.8184,2.89065 l -1.6717,4.45789 z m 11.1621,6.21669 0,-15.14986 2.0549,0 7.958,11.89351 0,-11.89351 1.9155,0 0,15.14986 -2.0548,0 -7.9581,-11.91094 0,11.91094 -1.9155,0 z m 14.3489,-4.87582 1.8807,-0.15674 q 0.1393,1.1319 0.6268,1.86328 0.4876,0.73137 1.5237,1.18413 1.0361,0.45275 2.3248,0.45275 1.1493,0 2.0286,-0.34828 0.8794,-0.34827 1.3148,-0.94032 0.4353,-0.59208 0.4353,-1.28862 0,-0.71398 -0.4179,-1.24507 -0.4179,-0.53111 -1.3757,-0.89681 -0.6095,-0.24381 -2.6991,-0.74008 -2.0896,-0.49628 -2.9255,-0.94904 -1.0796,-0.57467 -1.6108,-1.41053 -0.5311,-0.83585 -0.5311,-1.88067 0,-1.14928 0.6531,-2.15057 0.653,-1.00127 1.898,-1.51498 1.2451,-0.51372 2.7775,-0.51372 1.6891,0 2.9777,0.53985 1.2886,0.53981 1.9765,1.59336 0.6878,1.05351 0.7401,2.39433 l -1.9155,0.13931 q -0.1568,-1.42789 -1.0536,-2.16798 -0.8968,-0.74008 -2.6381,-0.74008 -1.811,0 -2.6469,0.67042 -0.8359,0.67044 -0.8359,1.61075 0,0.81847 0.5921,1.34087 0.5747,0.52242 3.0213,1.07966 2.4466,0.55723 3.3521,0.97516 1.3234,0.60947 1.959,1.54109 0.6356,0.93164 0.6356,2.1506 0,1.21895 -0.6965,2.28991 -0.6966,1.0709 -1.9939,1.66298 -1.2973,0.59204 -2.9168,0.59204 -2.0548,0 -3.4479,-0.60074 -1.3931,-0.60077 -2.1854,-1.80232 -0.7923,-1.20154 -0.8271,-2.73394 z m 25.3717,-0.43536 2.0025,0.50501 q -0.6269,2.47275 -2.2637,3.77006 -1.6369,1.29729 -4.0052,1.29729 -2.4553,0 -3.9877,-1.00124 -1.5324,-1.00131 -2.3334,-2.89069 -0.8011,-1.8894 -0.8011,-4.06607 0,-2.36826 0.8968,-4.12704 0.8968,-1.75878 2.5686,-2.673 1.6717,-0.91423 3.6742,-0.91423 2.2812,0 3.831,1.15805 1.5498,1.15798 2.1593,3.24761 l -1.9677,0.47016 q -0.5224,-1.65428 -1.5324,-2.41177 -1.01,-0.75749 -2.525,-0.75749 -1.7414,0 -2.9168,0.83585 -1.1754,0.83585 -1.6543,2.25506 -0.4789,1.41921 -0.4789,2.9168 0,1.93291 0.566,3.36953 0.5659,1.43663 1.7588,2.15056 1.1928,0.71398 2.5685,0.71398 1.6891,0 2.8558,-0.96645 1.1667,-0.96646 1.5847,-2.88198 z m 4.2315,5.31118 0,-15.14986 10.9706,0 0,1.77618 -8.9681,0 0,4.64942 8.3934,0 0,1.77622 -8.3934,0 0,5.15444 9.3163,0 0,1.7936 -11.3188,0 z m 14.1573,0 0,-15.14986 2.0199,0 0,15.14986 -2.0199,0 z m 9.7864,0 -5.8858,-15.14986 2.1767,0 3.9355,11.00542 q 0.4876,1.32344 0.801,2.47273 0.3483,-1.23637 0.8185,-2.47273 l 4.0922,-11.00542 2.0548,0 -5.9381,15.14986 -2.0548,0 z m 9.5601,0 0,-15.14986 10.9706,0 0,1.77618 -8.968,0 0,4.64942 8.3934,0 0,1.77622 -8.3934,0 0,5.15444 9.3163,0 0,1.7936 -11.3189,0 z m 13.8787,0 0,-15.14986 6.7217,0 q 2.0199,0 3.0734,0.40051 1.0536,0.4005 1.6805,1.43662 0.6269,1.03609 0.6269,2.28987 0,1.61949 -1.0361,2.72526 -1.0362,1.10575 -3.2303,1.40179 0.8011,0.38312 1.219,0.74877 0.8707,0.81847 1.6543,2.01999 l 2.6469,4.12705 -2.525,0 -2.0026,-3.15189 q -0.8881,-1.35824 -1.454,-2.08964 -0.566,-0.73135 -1.0187,-1.01867 -0.4528,-0.28733 -0.9055,-0.3918 -0.3483,-0.087 -1.1319,-0.087 l -2.316,0 0,6.73907 -2.0026,0 z m 2.0026,-8.46302 4.3011,0 q 1.3757,0 2.1506,-0.28731 0.7749,-0.28735 1.1842,-0.91424 0.4092,-0.62689 0.4092,-1.35829 0,-1.07962 -0.7837,-1.76744 -0.7836,-0.68785 -2.4727,-0.68785 l -4.7887,0 0,5.01513 z" />
      <path
         style="fill:#ffff00;fill-rule:nonzero;stroke:#073763;stroke-width:2.22894621;stroke-linecap:butt;stroke-linejoin:round"
         inkscape:connector-curvature="0"
         id="path4354"
         d="m 1269.223,589.02559 668.0695,0 10.6534,10.65332 -10.6534,10.65329 -668.0695,0 10.6533,-10.65329 z" />
      <path
         style="fill:#ffff00;fill-rule:nonzero;stroke:#073763;stroke-width:2.22894621;stroke-linecap:butt;stroke-linejoin:round"
         inkscape:connector-curvature="0"
         id="path4356"
         d="m 2034.0383,651.74527 -754.1737,-2.42287 -10.6357,-10.68753 10.6708,-10.61908 754.1737,2.42287 -10.6709,10.61909 z" />
      <path
         style="fill:#d9ead3;fill-rule:nonzero;stroke:#073763;stroke-width:2.22894621;stroke-linecap:butt;stroke-linejoin:round"
         inkscape:connector-curvature="0"
         id="path4358"
         d="m 1755.0372,725.38969 0,0 c 0,-16.039 13.0022,-29.04121 29.0413,-29.04121 l 116.1614,0 0,0 c 7.7022,0 15.089,3.05972 20.5352,8.50593 5.4464,5.44632 8.5061,12.83304 8.5061,20.53528 l 0,190.96285 c 0,16.03894 -13.0022,29.04116 -29.0413,29.04116 l -116.1614,0 c -16.0391,0 -29.0413,-13.00222 -29.0413,-29.04116 z" />
      <path
         style="fill:#000000;fill-rule:nonzero"
         inkscape:connector-curvature="0"
         id="path4360"
         d="m 1799.9202,804.70418 0,-15.14986 10.9706,0 0,1.77618 -8.968,0 0,4.64947 8.3933,0 0,1.77618 -8.3933,0 0,5.15444 9.3162,0 0,1.79359 -11.3188,0 z m 13.809,0 0,-15.14986 2.0548,0 7.9581,11.89352 0,-11.89352 1.9154,0 0,15.14986 -2.0547,0 -7.9581,-11.91094 0,11.91094 -1.9155,0 z m 15.0802,0 0,-15.14986 10.9706,0 0,1.77618 -8.968,0 0,4.64947 8.3934,0 0,1.77618 -8.3934,0 0,5.15444 9.3163,0 0,1.79359 -11.3189,0 z m 13.8613,0 0,-15.14986 6.7217,0 q 2.0199,0 3.0734,0.40052 1.0536,0.4005 1.6805,1.43662 0.6268,1.03613 0.6268,2.28991 0,1.61944 -1.036,2.72522 -1.0362,1.10578 -3.2303,1.40178 0.8011,0.38312 1.219,0.74882 0.8707,0.81842 1.6543,2.01998 l 2.6468,4.12701 -2.5249,0 -2.0026,-3.15185 q -0.8881,-1.35827 -1.454,-2.08963 -0.566,-0.73139 -1.0187,-1.01874 -0.4528,-0.28731 -0.9055,-0.39178 -0.3483,-0.087 -1.1319,-0.087 l -2.3161,0 0,6.73906 -2.0025,0 z m 2.0025,-8.46302 4.3012,0 q 1.3757,0 2.1506,-0.28733 0.7749,-0.28732 1.1842,-0.91421 0.4092,-0.62689 0.4092,-1.35825 0,-1.07966 -0.7837,-1.7675 -0.7836,-0.68784 -2.4727,-0.68784 l -4.7888,0 0,5.01513 z m 20.0605,2.52499 0,-1.79363 6.4257,0 0,5.62463 q -1.4802,1.18413 -3.0561,1.77618 -1.5759,0.59208 -3.2302,0.59208 -2.229,0 -4.0487,-0.95778 -1.8197,-0.95773 -2.7513,-2.76875 -0.9317,-1.81102 -0.9317,-4.03997 0,-2.21153 0.9229,-4.12705 0.923,-1.91549 2.6644,-2.84714 1.7413,-0.93159 4.005,-0.93159 1.637,0 2.9691,0.5311 1.3321,0.53111 2.081,1.48019 0.7487,0.94902 1.1492,2.48142 l -1.811,0.48758 q -0.3483,-1.14929 -0.8533,-1.81102 -0.5049,-0.6617 -1.4453,-1.06225 -0.9403,-0.40049 -2.0897,-0.40049 -1.3756,0 -2.3769,0.41792 -1.0012,0.41793 -1.6194,1.10574 -0.6182,0.68785 -0.9491,1.50632 -0.592,1.39309 -0.592,3.04737 0,2.01998 0.7052,3.38693 0.7052,1.36701 2.0374,2.02872 1.3321,0.66173 2.8297,0.66173 1.306,0 2.5424,-0.50501 1.2364,-0.50499 1.8806,-1.06223 l 0,-2.821 -4.4579,0 z m 13.3563,5.93803 0,-6.42561 -5.8336,-8.72425 2.4379,0 2.9778,4.56236 q 0.8359,1.28862 1.5498,2.55984 0.6792,-1.18413 1.6543,-2.68172 l 2.9255,-4.44048 2.3509,0 -6.06,8.72425 0,6.42561 -2.0026,0 z" />
      <path
         style="fill:#000000;fill-rule:nonzero"
         inkscape:connector-curvature="0"
         id="path4362"
         d="m 1776.1506,828.10811 0,-15.14986 3.0299,0 3.5873,10.72681 q 0.4875,1.49756 0.7139,2.24637 0.2612,-0.83585 0.8185,-2.43791 l 3.622,-10.53527 2.6991,0 0,15.14986 -1.9329,0 0,-12.69452 -4.4057,12.69452 -1.811,0 -4.3882,-12.90348 0,12.90348 -1.9329,0 z m 16.7867,-7.38338 q 0,-3.77874 2.0287,-5.91195 2.0287,-2.13314 5.2328,-2.13314 2.0897,0 3.7788,1.00128 1.6891,1.00129 2.5685,2.79488 0.8794,1.79363 0.8794,4.0748 0,2.2986 -0.9317,4.11836 -0.9316,1.81971 -2.6381,2.76004 -1.7065,0.94034 -3.6743,0.94034 -2.1418,0 -3.8223,-1.03612 -1.6804,-1.03613 -2.5511,-2.82101 -0.8707,-1.78489 -0.8707,-3.78748 z m 2.0722,0.0349 q 0,2.73396 1.4715,4.30988 1.4715,1.57592 3.683,1.57592 2.2638,0 3.7265,-1.59336 1.4628,-1.59332 1.4628,-4.51881 0,-1.84584 -0.6182,-3.22154 -0.6182,-1.37566 -1.8285,-2.14186 -1.2102,-0.7662 -2.7078,-0.7662 -2.1245,0 -3.6569,1.46274 -1.5324,1.46275 -1.5324,4.89323 z m 14.6798,7.34855 0,-15.14986 2.0548,0 7.958,11.89352 0,-11.89352 1.9155,0 0,15.14986 -2.0548,0 -7.958,-11.91094 0,11.91094 -1.9155,0 z m 15.3762,0 0,-15.14986 2.02,0 0,15.14986 -2.02,0 z m 9.2815,0 0,-13.37368 -4.9803,0 0,-1.77618 11.998,0 0,1.77618 -5.0151,0 0,13.37368 -2.0026,0 z m 8.254,-7.38339 q 0,-3.77873 2.0287,-5.91194 2.0287,-2.13315 5.2329,-2.13315 2.0896,0 3.7787,1.00129 1.6891,1.00128 2.5685,2.79487 0.8794,1.79364 0.8794,4.07481 0,2.2986 -0.9317,4.11835 -0.9315,1.81972 -2.6381,2.76004 -1.7065,0.94035 -3.6743,0.94035 -2.1418,0 -3.8223,-1.03613 -1.6804,-1.03612 -2.5511,-2.82101 -0.8707,-1.78488 -0.8707,-3.78748 z m 2.0722,0.0349 q 0,2.73396 1.4715,4.30988 1.4715,1.57592 3.683,1.57592 2.2638,0 3.7265,-1.59336 1.4628,-1.59332 1.4628,-4.51881 0,-1.84583 -0.6182,-3.22154 -0.6182,-1.37566 -1.8285,-2.14186 -1.2102,-0.7662 -2.7077,-0.7662 -2.1246,0 -3.657,1.46275 -1.5324,1.46274 -1.5324,4.89322 z m 14.732,7.34855 0,-15.14986 6.7216,0 q 2.02,0 3.0736,0.40052 1.0535,0.4005 1.6804,1.43662 0.6269,1.03613 0.6269,2.28991 0,1.61944 -1.0361,2.72522 -1.0361,1.10578 -3.2303,1.40179 0.8011,0.38311 1.219,0.74881 0.8706,0.81843 1.6543,2.01999 l 2.6469,4.127 -2.525,0 -2.0026,-3.15184 q -0.8881,-1.35828 -1.454,-2.08964 -0.566,-0.73138 -1.0187,-1.01874 -0.4528,-0.28731 -0.9055,-0.39178 -0.3483,-0.087 -1.1319,-0.087 l -2.316,0 0,6.73906 -2.0026,0 z m 2.0026,-8.46302 4.3011,0 q 1.3757,0 2.1506,-0.28732 0.7749,-0.28732 1.1841,-0.91421 0.4093,-0.6269 0.4093,-1.35826 0,-1.07965 -0.7836,-1.7675 -0.7837,-0.68784 -2.4728,-0.68784 l -4.7887,0 0,5.01513 z m 13.3214,8.46302 0,-15.14986 2.02,0 0,15.14986 -2.02,0 z m 5.4156,0 0,-15.14986 2.0549,0 7.958,11.89353 0,-11.89353 1.9155,0 0,15.14986 -2.0548,0 -7.9581,-11.91093 0,11.91093 -1.9155,0 z m 22.1328,-5.93802 0,-1.79364 6.4256,0 0,5.62464 q -1.4802,1.18413 -3.0561,1.77618 -1.5759,0.59207 -3.2302,0.59207 -2.229,0 -4.0487,-0.95778 -1.8197,-0.95773 -2.7513,-2.76875 -0.9317,-1.81102 -0.9317,-4.03996 0,-2.21154 0.923,-4.12705 0.9229,-1.91549 2.6643,-2.84715 1.7413,-0.93158 4.0051,-0.93158 1.6369,0 2.969,0.5311 1.3322,0.5311 2.081,1.48018 0.7487,0.94902 1.1492,2.48142 l -1.811,0.48759 q -0.3483,-1.14929 -0.8532,-1.81102 -0.505,-0.66171 -1.4454,-1.06225 -0.9403,-0.4005 -2.0896,-0.4005 -1.3757,0 -2.377,0.41793 -1.0012,0.41793 -1.6194,1.10573 -0.6182,0.68786 -0.9491,1.50633 -0.592,1.39309 -0.592,3.04737 0,2.01998 0.7052,3.38692 0.7053,1.36702 2.0374,2.02872 1.3321,0.66173 2.8297,0.66173 1.306,0 2.5424,-0.50501 1.2364,-0.50499 1.8807,-1.06222 l 0,-2.821 -4.4579,0 z" />
      <path
         style="fill:#000000;fill-rule:nonzero"
         inkscape:connector-curvature="0"
         id="path4364"
         d="m 1833.7201,851.51205 0,-15.14986 2.02,0 0,15.14986 -2.02,0 z m 16.2643,-5.31114 2.0026,0.50497 q -0.6269,2.47275 -2.2638,3.77004 -1.6369,1.29736 -4.0052,1.29736 -2.4552,0 -3.9876,-1.0013 -1.5324,-1.0013 -2.3335,-2.89066 -0.801,-1.88937 -0.801,-4.06609 0,-2.36826 0.8968,-4.12703 0.8968,-1.75879 2.5685,-2.673 1.6717,-0.9142 3.6743,-0.9142 2.2811,0 3.831,1.15799 1.5498,1.158 2.1593,3.24763 l -1.9678,0.4702 q -0.5223,-1.65432 -1.5324,-2.41183 -1.0099,-0.75746 -2.5249,-0.75746 -1.7414,0 -2.9168,0.83585 -1.1755,0.83586 -1.6543,2.25509 -0.4789,1.41917 -0.4789,2.91676 0,1.93292 0.5659,3.36954 0.566,1.43662 1.7588,2.1506 1.1929,0.71393 2.5686,0.71393 1.6891,0 2.8558,-0.96647 1.1667,-0.96643 1.5846,-2.88192 z" />
      <path
         style="fill:#ffff00;fill-rule:nonzero;stroke:#073763;stroke-width:2.22894621;stroke-linecap:butt;stroke-linejoin:round"
         inkscape:connector-curvature="0"
         id="path4366"
         d="m 1167.1325,527.82031 31.8825,19.04736 -6.8261,6.81108 35.3567,12.85644 -6.5261,7.50693 48.1868,26.27312 -65.8167,-7.67775 8.2316,-8.55527 -41.1459,-5.35438 9.1398,-11.07753 -43.3862,-5.52108 z" />
      <path
         style="fill:#ffff00;fill-rule:nonzero;stroke:#073763;stroke-width:2.22894621;stroke-linecap:butt;stroke-linejoin:round"
         inkscape:connector-curvature="0"
         id="path4368"
         d="m 1269.223,549.22787 778.2883,0 10.6534,10.65331 -10.6534,10.65333 -778.2883,0 10.6533,-10.65333 z" />
      <path
         style="fill:#444444;fill-rule:nonzero;stroke:#444444;stroke-width:2.22894621;stroke-linecap:butt;stroke-linejoin:round"
         inkscape:connector-curvature="0"
         id="path4370"
         d="m 1209.9462,742.87427 -53.1086,-52.30128 104.6727,-0.0702 z" />
      <path
         style="fill:#ffff00;fill-rule:nonzero;stroke:#073763;stroke-width:2.22894621;stroke-linecap:butt;stroke-linejoin:round"
         inkscape:connector-curvature="0"
         id="path4372"
         d="m 1175.5919,474.6481 29.6315,22.38951 -7.5239,6.03148 33.756,16.6114 -7.301,6.75578 45.057,31.33917 -64.5979,-14.76314 9.1101,-7.61319 -40.3239,-9.78064 10.2862,-10.02221 -42.533,-10.18907 z" />
      <path
         style="fill:#d9ead3;fill-rule:nonzero;stroke:#073763;stroke-width:2.22894621;stroke-linecap:butt;stroke-linejoin:round"
         inkscape:connector-curvature="0"
         id="path4374"
         d="m 1524.4279,539.83841 0,0 c 0,-5.53483 4.4868,-10.0217 10.0217,-10.0217 l 94.5982,0 c 2.6578,0 5.2069,1.05589 7.0863,2.9353 1.8795,1.87945 2.9353,4.4285 2.9353,7.0864 l 0,40.08552 c 0,5.53486 -4.4868,10.02169 -10.0216,10.02169 l -94.5982,0 c -5.5349,0 -10.0217,-4.48683 -10.0217,-10.02169 z" />
      <path
         style="fill:#000000;fill-rule:nonzero"
         inkscape:connector-curvature="0"
         id="path4376"
         d="m 1540.0751,567.1091 0,-15.14988 6.7216,0 q 2.02,0 3.0736,0.40052 1.0535,0.40052 1.6804,1.43662 0.6269,1.03612 0.6269,2.2899 0,1.61947 -1.0361,2.72523 -1.0362,1.10577 -3.2303,1.40181 0.801,0.38309 1.219,0.74878 0.8707,0.81843 1.6543,2.01998 l 2.6469,4.12704 -2.525,0 -2.0026,-3.15188 q -0.8881,-1.35826 -1.454,-2.08963 -0.566,-0.73138 -1.0187,-1.01871 -0.4528,-0.28731 -0.9055,-0.3918 -0.3483,-0.087 -1.1319,-0.087 l -2.316,0 0,6.73908 -2.0026,0 z m 2.0026,-8.46304 4.3011,0 q 1.3757,0 2.1506,-0.28732 0.7749,-0.28733 1.1841,-0.91422 0.4093,-0.62689 0.4093,-1.35826 0,-1.07965 -0.7837,-1.76749 -0.7836,-0.68784 -2.4727,-0.68784 l -4.7887,0 0,5.01513 z m 13.0079,8.46304 0,-15.14988 10.9706,0 0,1.7762 -8.968,0 0,4.64944 8.3934,0 0,1.77619 -8.3934,0 0,5.15444 9.3163,0 0,1.79361 -11.3189,0 z m 13.7568,0 0,-15.14988 2.0026,0 0,13.35627 7.4704,0 0,1.79361 -9.473,0 z m 9.978,0 5.8336,-15.14988 2.1593,0 6.1993,15.14988 -2.2812,0 -1.7762,-4.5972 -6.3386,0 -1.6543,4.5972 -2.1419,0 z m 4.3709,-6.21668 5.137,0 -1.5672,-4.2141 q -0.7314,-1.89808 -1.0797,-3.13445 -0.296,1.46274 -0.8184,2.89066 l -1.6717,4.45789 z m 15.4284,6.21668 0,-6.42564 -5.8335,-8.72424 2.4379,0 2.9777,4.56238 q 0.8359,1.2886 1.5498,2.5598 0.6792,-1.18412 1.6543,-2.6817 l 2.9255,-4.44048 2.3509,0 -6.06,8.72424 0,6.42564 -2.0026,0 z m 8.6546,-4.54497 0,-1.88067 5.7117,0 0,1.88067 -5.7117,0 z m 14.1225,4.54497 -1.8633,0 0,-11.8587 q -0.6617,0.64431 -1.7587,1.2799 -1.0971,0.6356 -1.9678,0.96647 l 0,-1.81102 q 1.5672,-0.73138 2.734,-1.7762 1.1667,-1.04482 1.6543,-2.01999 l 1.2015,0 0,15.21954 z" />
      <path
         style="fill:#ffff00;fill-rule:nonzero;stroke:#073763;stroke-width:2.22894621;stroke-linecap:butt;stroke-linejoin:round"
         inkscape:connector-curvature="0"
         id="path4378"
         d="m 2024.8829,809.8731 -0.3632,-168.92598 10.6304,-10.68844 10.6762,10.61824 0.3632,168.92597 -10.6762,-10.61821 z" />
      <path
         style="fill:#ff9900;fill-rule:nonzero;stroke:#073763;stroke-width:2.22894621;stroke-linecap:butt;stroke-linejoin:round"
         inkscape:connector-curvature="0"
         id="path4380"
         d="m 2011.8857,685.1022 0,0 c 0,-8.41371 6.8206,-15.23445 15.2344,-15.23445 l 81.6455,0 c 4.0404,0 7.9154,1.60507 10.7724,4.46206 2.8569,2.85702 4.462,6.73193 4.462,10.77239 l 0,60.93556 c 0,8.41371 -6.8207,15.23436 -15.2344,15.23436 l -81.6455,0 0,0 c -8.4138,0 -15.2344,-6.82065 -15.2344,-15.23436 z" />
      <path
         style="fill:#000000;fill-rule:nonzero"
         inkscape:connector-curvature="0"
         id="path4382"
         d="m 2032.5075,722.80939 0,-15.14985 2.0026,0 0,13.35625 7.4705,0 0,1.7936 -9.4731,0 z m 11.0403,-7.38338 q 0,-3.77878 2.0287,-5.91192 2.0287,-2.13317 5.2328,-2.13317 2.0896,0 3.7787,1.00124 1.6892,1.00132 2.5686,2.79492 0.8794,1.79359 0.8794,4.0748 0,2.29861 -0.9317,4.11832 -0.9316,1.81971 -2.6382,2.76007 -1.7065,0.94031 -3.6742,0.94031 -2.1419,0 -3.8223,-1.03612 -1.6804,-1.03608 -2.5511,-2.82096 -0.8707,-1.78494 -0.8707,-3.78749 z m 2.0722,0.0349 q 0,2.73392 1.4715,4.30989 1.4714,1.57591 3.683,1.57591 2.2637,0 3.7265,-1.59334 1.4627,-1.59335 1.4627,-4.51884 0,-1.84587 -0.6182,-3.22153 -0.6182,-1.37567 -1.8284,-2.14187 -1.2102,-0.7662 -2.7078,-0.7662 -2.1245,0 -3.6569,1.46274 -1.5324,1.46275 -1.5324,4.89324 z m 13.0428,7.34855 5.8336,-15.14986 2.1593,0 6.1993,15.14986 -2.2812,0 -1.7762,-4.5972 -6.3386,0 -1.6543,4.5972 -2.1419,0 z m 4.3709,-6.21669 5.137,0 -1.5672,-4.21408 q -0.7314,-1.89809 -1.0797,-3.13445 -0.296,1.46274 -0.8184,2.89064 l -1.6717,4.45789 z m 11.1621,6.21669 0,-15.14986 5.2241,0 q 1.7588,0 2.6991,0.20896 1.2886,0.29601 2.2115,1.07964 1.2016,1.02739 1.7937,2.60336 0.592,1.57591 0.592,3.5959 0,1.72393 -0.4005,3.05606 -0.4005,1.33217 -1.0274,2.21156 -0.6269,0.8794 -1.3757,1.37571 -0.7488,0.49627 -1.811,0.75747 -1.0622,0.2612 -2.4379,0.2612 l -5.4679,0 z m 2.0026,-1.7936 3.2389,0 q 1.4976,0 2.3509,-0.27862 0.8532,-0.27862 1.3582,-0.78362 0.714,-0.71397 1.1145,-1.91549 0.4005,-1.20155 0.4005,-2.92549 0,-2.36826 -0.7836,-3.64816 -0.7836,-1.27993 -1.8981,-1.71524 -0.801,-0.31346 -2.5946,-0.31346 l -3.1867,0 0,11.58008 z m 25.0408,1.7936 -1.8633,0 0,-11.85871 q -0.6617,0.64432 -1.7587,1.27993 -1.0971,0.63559 -1.9678,0.96645 l 0,-1.81102 q 1.5672,-0.73136 2.734,-1.77618 1.1667,-1.04482 1.6543,-2.01998 l 1.2015,0 0,15.21951 z" />
      <path
         style="fill:#ff9900;fill-rule:nonzero;stroke:#073763;stroke-width:2.22894621;stroke-linecap:butt;stroke-linejoin:round"
         inkscape:connector-curvature="0"
         id="path4384"
         d="m 1947.9459,798.65738 0,0 c 0,-9.53164 7.727,-17.25856 17.2586,-17.25856 l 77.5971,0 c 4.5772,0 8.9671,1.81831 12.2036,5.05492 3.2366,3.23662 5.0549,7.62639 5.0549,12.20364 l 0,69.03229 c 0,9.53167 -7.7269,17.25862 -17.2585,17.25862 l -77.5971,0 c -9.5316,0 -17.2586,-7.72695 -17.2586,-17.25862 z" />
      <path
         style="fill:#000000;fill-rule:nonzero"
         inkscape:connector-curvature="0"
         id="path4386"
         d="m 1968.5686,840.40114 0,-15.14987 2.0026,0 0,13.35629 7.4704,0 0,1.79358 -9.473,0 z m 11.0402,-7.38338 q 0,-3.77879 2.0287,-5.91194 2.0287,-2.13317 5.2328,-2.13317 2.0897,0 3.7788,1.00129 1.6891,1.00131 2.5685,2.79489 0.8794,1.79357 0.8794,4.07479 0,2.2986 -0.9316,4.11831 -0.9317,1.81971 -2.6382,2.76011 -1.7065,0.94028 -3.6743,0.94028 -2.1419,0 -3.8223,-1.03608 -1.6804,-1.03612 -2.5511,-2.821 -0.8707,-1.78494 -0.8707,-3.78748 z m 2.0723,0.0348 q 0,2.73391 1.4714,4.30989 1.4715,1.57592 3.683,1.57592 2.2638,0 3.7265,-1.59335 1.4628,-1.59332 1.4628,-4.51881 0,-1.8459 -0.6182,-3.22155 -0.6182,-1.37565 -1.8285,-2.14185 -1.2102,-0.7662 -2.7078,-0.7662 -2.1244,0 -3.6568,1.46274 -1.5324,1.46275 -1.5324,4.89321 z m 13.0428,7.34855 5.8336,-15.14986 2.1593,0 6.1992,15.14986 -2.2812,0 -1.7762,-4.5972 -6.3385,0 -1.6543,4.5972 -2.1419,0 z m 4.3708,-6.21669 5.137,0 -1.5672,-4.21405 q -0.7314,-1.89811 -1.0796,-3.13446 -0.2961,1.46275 -0.8185,2.89061 l -1.6717,4.4579 z m 11.1622,6.21669 0,-15.14986 5.224,0 q 1.7588,0 2.6992,0.20896 1.2886,0.296 2.2115,1.07964 1.2016,1.02738 1.7936,2.60336 0.5921,1.57592 0.5921,3.5959 0,1.72392 -0.4006,3.0561 -0.4005,1.33214 -1.0274,2.21151 -0.6268,0.87943 -1.3756,1.37571 -0.7488,0.49627 -1.811,0.75751 -1.0623,0.26117 -2.438,0.26117 l -5.4678,0 z m 2.0025,-1.79357 3.239,0 q 1.4976,0 2.3508,-0.27862 0.8533,-0.27862 1.3583,-0.78364 0.7139,-0.71399 1.1144,-1.9155 0.4006,-1.20152 0.4006,-2.9255 0,-2.36825 -0.7837,-3.64816 -0.7836,-1.27992 -1.898,-1.71524 -0.8011,-0.31344 -2.5947,-0.31344 l -3.1867,0 0,11.5801 z m 27.8096,0 0,1.79357 -10.0128,0 q -0.017,-0.6791 0.2089,-1.28861 0.3832,-1.02743 1.2277,-2.01998 0.8445,-0.99255 2.4292,-2.2986 2.4727,-2.01998 3.3434,-3.20411 0.8707,-1.18413 0.8707,-2.24633 0,-1.09709 -0.7923,-1.86329 -0.7923,-0.7662 -2.0635,-0.7662 -1.3409,0 -2.1506,0.80973 -0.8097,0.80971 -0.8097,2.23769 l -1.9156,-0.19158 q 0.1916,-2.14191 1.4802,-3.26507 1.2886,-1.12317 3.4479,-1.12317 2.1767,0 3.4479,1.21025 1.2712,1.21027 1.2712,3.00385 0,0.90551 -0.3744,1.78489 -0.3744,0.87943 -1.2363,1.84585 -0.862,0.96646 -2.8646,2.673 -1.6717,1.41048 -2.1506,1.9068 -0.4788,0.49628 -0.7923,1.00131 l 7.4356,0 z" />
      <path
         style="fill:#ffff00;fill-rule:nonzero;stroke:#073763;stroke-width:2.22894621;stroke-linecap:butt;stroke-linejoin:round"
         inkscape:connector-curvature="0"
         id="path4388"
         d="m 1910.4072,589.02559 43.4896,0 0,0 c 24.5198,0 44.3969,19.87714 44.3969,44.39683 l 0,148.32004 13.592,0 -24.4543,25.47413 -24.4542,-25.47413 13.592,0 0,-148.32004 0,0 c 0,-12.52157 -10.1508,-22.67234 -22.6724,-22.67234 l -43.4896,0 z" />
      <path
         style="fill:#ffff00;fill-rule:nonzero;stroke:#073763;stroke-width:2.22894621;stroke-linecap:butt;stroke-linejoin:round"
         inkscape:connector-curvature="0"
         id="path4390"
         d="m 2010.9012,549.22787 43.4896,0 0,0 c 24.5197,0 44.3968,19.87716 44.3968,44.39683 l 0,76.67788 13.592,0 -24.4543,25.47411 -24.4543,-25.47411 13.592,0 0,-76.67788 0,0 c 0,-12.52157 -10.1507,-22.67234 -22.6722,-22.67234 l -43.4896,0 z" />
      <path
         style="fill:#d9ead3;fill-rule:nonzero;stroke:#073763;stroke-width:2.22894621;stroke-linecap:butt;stroke-linejoin:round"
         inkscape:connector-curvature="0"
         id="path4402"
         d="m 1649.3486,579.63613 0,0 c 0,-5.53483 4.4868,-10.0217 10.0216,-10.0217 l 94.5982,0 c 2.6579,0 5.207,1.05589 7.0864,2.9353 1.8794,1.87942 2.9353,4.42847 2.9353,7.0864 l 0,40.08553 c 0,5.53482 -4.4869,10.02169 -10.0217,10.02169 l -94.5982,0 c -5.5348,0 -10.0216,-4.48687 -10.0216,-10.02169 z" />
      <path
         style="fill:#000000;fill-rule:nonzero"
         inkscape:connector-curvature="0"
         id="path4404"
         d="m 1664.9958,606.90682 0,-15.14988 6.7216,0 q 2.02,0 3.0735,0.40052 1.0536,0.40052 1.6805,1.43662 0.6268,1.03612 0.6268,2.2899 0,1.61947 -1.0361,2.72523 -1.0361,1.10577 -3.2302,1.40181 0.801,0.38309 1.219,0.74878 0.8706,0.81844 1.6543,2.01998 l 2.6469,4.12704 -2.5251,0 -2.0025,-3.15187 q -0.8881,-1.35827 -1.454,-2.08964 -0.566,-0.73137 -1.0188,-1.01871 -0.4527,-0.28731 -0.9055,-0.3918 -0.3482,-0.087 -1.1319,-0.087 l -2.316,0 0,6.73908 -2.0025,0 z m 2.0025,-8.46304 4.3012,0 q 1.3757,0 2.1506,-0.28732 0.7749,-0.28732 1.1841,-0.91422 0.4092,-0.62689 0.4092,-1.35826 0,-1.07965 -0.7836,-1.76749 -0.7836,-0.68784 -2.4727,-0.68784 l -4.7888,0 0,5.01513 z m 13.008,8.46304 0,-15.14988 10.9706,0 0,1.7762 -8.968,0 0,4.64944 8.3934,0 0,1.77619 -8.3934,0 0,5.15444 9.3163,0 0,1.79361 -11.3189,0 z m 13.7568,0 0,-15.14988 2.0026,0 0,13.35627 7.4704,0 0,1.79361 -9.473,0 z m 9.978,0 5.8336,-15.14988 2.1593,0 6.1992,15.14988 -2.2812,0 -1.7761,-4.5972 -6.3386,0 -1.6543,4.5972 -2.1419,0 z m 4.3708,-6.21667 5.1371,0 -1.5673,-4.21411 q -0.7313,-1.89808 -1.0796,-3.13445 -0.296,1.46274 -0.8185,2.89066 l -1.6717,4.4579 z m 15.4285,6.21667 0,-6.42564 -5.8335,-8.72424 2.4379,0 2.9777,4.56239 q 0.8359,1.2886 1.5498,2.5598 0.6791,-1.18413 1.6543,-2.6817 l 2.9255,-4.44049 2.3508,0 -6.0599,8.72424 0,6.42564 -2.0026,0 z m 8.6546,-4.54496 0,-1.88068 5.7117,0 0,1.88068 -5.7117,0 z m 16.8912,2.75135 0,1.79361 -10.0128,0 q -0.017,-0.67914 0.209,-1.28862 0.3831,-1.0274 1.2276,-2.01998 0.8446,-0.99257 2.4292,-2.2986 2.4728,-2.01998 3.3434,-3.20411 0.8707,-1.18413 0.8707,-2.24636 0,-1.09706 -0.7923,-1.86326 -0.7923,-0.7662 -2.0635,-0.7662 -1.3409,0 -2.1506,0.80973 -0.8097,0.80974 -0.8097,2.23766 l -1.9155,-0.19155 q 0.1915,-2.14188 1.4802,-3.26507 1.2885,-1.12317 3.4478,-1.12317 2.1767,0 3.448,1.21025 1.2711,1.21025 1.2711,3.00386 0,0.90551 -0.3744,1.78488 -0.3744,0.8794 -1.2363,1.84585 -0.862,0.96647 -2.8646,2.673 -1.6717,1.41051 -2.1506,1.90679 -0.4788,0.4963 -0.7923,1.00129 l 7.4356,0 z" />
      <path
         style="fill:#d9ead3;fill-rule:nonzero;stroke:#073763;stroke-width:2.22894621;stroke-linecap:butt;stroke-linejoin:round"
         inkscape:connector-curvature="0"
         id="path4406"
         d="m 1344.0675,702.73156 0,0 c 0,-11.47358 9.3011,-20.77467 20.7747,-20.77467 l 162.7064,0 c 5.5097,0 10.7939,2.18871 14.6899,6.08474 3.896,3.89597 6.0847,9.18012 6.0847,14.68993 l 0,83.09612 c 0,11.47354 -9.3011,20.77467 -20.7746,20.77467 l -162.7064,0 c -11.4736,0 -20.7747,-9.30113 -20.7747,-20.77467 z" />
      <path
         style="fill:#000000;fill-rule:nonzero"
         inkscape:connector-curvature="0"
         id="path4408"
         d="m 1388.3751,728.11034 0,-15.14986 10.9706,0 0,1.77618 -8.968,0 0,4.64947 8.3934,0 0,1.77618 -8.3934,0 0,5.15444 9.3163,0 0,1.79359 -11.3189,0 z m 17.6749,0 0,-13.37368 -4.9803,0 0,-1.77618 11.998,0 0,1.77618 -5.0152,0 0,13.37368 -2.0025,0 z m 8.8983,0 0,-15.14986 2.02,0 0,6.21669 7.871,0 0,-6.21669 2.0026,0 0,15.14986 -2.0026,0 0,-7.13958 -7.871,0 0,7.13958 -2.02,0 z m 15.0106,0 0,-15.14986 10.9706,0 0,1.77618 -8.968,0 0,4.64947 8.3933,0 0,1.77618 -8.3933,0 0,5.15444 9.3163,0 0,1.79359 -11.3189,0 z m 13.8613,0 0,-15.14986 6.7216,0 q 2.02,0 3.0735,0.40052 1.0536,0.4005 1.6805,1.43663 0.6268,1.03612 0.6268,2.2899 0,1.61944 -1.0361,2.72522 -1.0361,1.10578 -3.2302,1.40179 0.801,0.38311 1.219,0.74881 0.8706,0.81843 1.6543,2.01999 l 2.6468,4.127 -2.525,0 -2.0025,-3.15184 q -0.8881,-1.35828 -1.4541,-2.08964 -0.5659,-0.73138 -1.0187,-1.01874 -0.4527,-0.28731 -0.9055,-0.39178 -0.3482,-0.087 -1.1319,-0.087 l -2.316,0 0,6.73906 -2.0025,0 z m 2.0025,-8.46302 4.3012,0 q 1.3757,0 2.1506,-0.28732 0.7749,-0.28732 1.1841,-0.91421 0.4092,-0.6269 0.4092,-1.35826 0,-1.07965 -0.7836,-1.7675 -0.7836,-0.68784 -2.4727,-0.68784 l -4.7888,0 0,5.01513 z m 12.9558,8.46302 0,-15.14986 2.0548,0 7.958,11.89353 0,-11.89353 1.9155,0 0,15.14986 -2.0548,0 -7.958,-11.91093 0,11.91093 -1.9155,0 z m 15.0802,0 0,-15.14986 10.9706,0 0,1.77618 -8.968,0 0,4.64947 8.3933,0 0,1.77618 -8.3933,0 0,5.15444 9.3163,0 0,1.79359 -11.3189,0 z m 17.6748,0 0,-13.37368 -4.9803,0 0,-1.77618 11.998,0 0,1.77618 -5.0151,0 0,13.37368 -2.0026,0 z m 7.8884,-4.54493 0,-1.88068 5.7117,0 0,1.88068 -5.7117,0 z" />
      <path
         style="fill:#000000;fill-rule:nonzero"
         inkscape:connector-curvature="0"
         id="path4410"
         d="m 1414.2866,744.13089 q 0,-3.77873 2.0287,-5.91194 2.0287,-2.13315 5.2328,-2.13315 2.0897,0 3.7788,1.00129 1.6891,1.00128 2.5685,2.79487 0.8794,1.79364 0.8794,4.07481 0,2.2986 -0.9317,4.11835 -0.9316,1.81971 -2.6381,2.76004 -1.7066,0.94035 -3.6743,0.94035 -2.1419,0 -3.8223,-1.03613 -1.6804,-1.03612 -2.5511,-2.82101 -0.8707,-1.78488 -0.8707,-3.78748 z m 2.0722,0.0349 q 0,2.73396 1.4715,4.30988 1.4714,1.57592 3.683,1.57592 2.2638,0 3.7265,-1.59336 1.4628,-1.59332 1.4628,-4.51881 0,-1.84583 -0.6182,-3.22154 -0.6182,-1.37566 -1.8285,-2.14186 -1.2102,-0.7662 -2.7078,-0.7662 -2.1244,0 -3.6568,1.46275 -1.5325,1.46274 -1.5325,4.89322 z m 19.0506,7.34855 -5.8858,-15.14986 2.1767,0 3.9354,11.00542 q 0.4876,1.32344 0.8011,2.47273 0.3482,-1.23635 0.8184,-2.47273 l 4.0922,-11.00542 2.0548,0 -5.938,15.14986 -2.0548,0 z m 9.5601,0 0,-15.14986 10.9706,0 0,1.77618 -8.9681,0 0,4.64947 8.3934,0 0,1.77618 -8.3934,0 0,5.15444 9.3163,0 0,1.79359 -11.3188,0 z m 13.8786,0 0,-15.14986 6.7217,0 q 2.02,0 3.0735,0.40052 1.0535,0.4005 1.6804,1.43662 0.6269,1.03613 0.6269,2.28991 0,1.61944 -1.0361,2.72522 -1.0361,1.10578 -3.2302,1.40179 0.801,0.38311 1.2189,0.74881 0.8707,0.81843 1.6543,2.01999 l 2.6469,4.127 -2.525,0 -2.0026,-3.15184 q -0.888,-1.35828 -1.454,-2.08964 -0.5659,-0.73138 -1.0187,-1.01874 -0.4527,-0.28731 -0.9055,-0.39178 -0.3483,-0.087 -1.1319,-0.087 l -2.316,0 0,6.73906 -2.0026,0 z m 2.0026,-8.46302 4.3012,0 q 1.3756,0 2.1506,-0.28732 0.7749,-0.28732 1.1841,-0.91421 0.4092,-0.6269 0.4092,-1.35826 0,-1.07965 -0.7836,-1.7675 -0.7836,-0.68784 -2.4727,-0.68784 l -4.7888,0 0,5.01513 z m 12.0154,3.91809 0,-1.88068 5.7117,0 0,1.88068 -5.7117,0 z" />
      <path
         style="fill:#000000;fill-rule:nonzero"
         inkscape:connector-curvature="0"
         id="path4412"
         d="m 1372.1456,774.91821 0,-15.14986 5.7117,0 q 1.515,0 2.316,0.13931 1.1145,0.19156 1.8633,0.71398 0.7487,0.5224 1.2102,1.46274 0.4615,0.94033 0.4615,2.0548 0,1.9329 -1.2277,3.27377 -1.2277,1.34084 -4.4492,1.34084 l -3.8832,0 0,6.16442 -2.0026,0 z m 2.0026,-7.95801 3.918,0 q 1.9504,0 2.7601,-0.72268 0.8097,-0.72268 0.8097,-2.02868 0,-0.95776 -0.4788,-1.63687 -0.4789,-0.67916 -1.2625,-0.88813 -0.505,-0.13931 -1.8633,-0.13931 l -3.8832,0 0,5.41567 z m 11.2666,0.57463 q 0,-3.77874 2.0287,-5.91195 2.0287,-2.13314 5.2328,-2.13314 2.0896,0 3.7788,1.00128 1.6891,1.00129 2.5685,2.79488 0.8794,1.79363 0.8794,4.0748 0,2.2986 -0.9317,4.11836 -0.9316,1.81971 -2.6381,2.76004 -1.7066,0.94034 -3.6743,0.94034 -2.1419,0 -3.8223,-1.03612 -1.6804,-1.03613 -2.5511,-2.82101 -0.8707,-1.78489 -0.8707,-3.78748 z m 2.0722,0.0349 q 0,2.73396 1.4715,4.30988 1.4714,1.57592 3.683,1.57592 2.2637,0 3.7265,-1.59336 1.4627,-1.59332 1.4627,-4.51881 0,-1.84584 -0.6182,-3.22154 -0.6181,-1.37566 -1.8284,-2.14186 -1.2102,-0.7662 -2.7078,-0.7662 -2.1245,0 -3.6569,1.46274 -1.5324,1.46275 -1.5324,4.89323 z m 17.3614,7.34855 -4.0225,-15.14986 2.0548,0 2.2986,9.92576 q 0.3831,1.56724 0.6443,3.09964 0.5746,-2.42048 0.6791,-2.80359 l 2.8907,-10.22181 2.4205,0 2.1767,7.662 q 0.8184,2.85584 1.1667,5.3634 0.296,-1.42793 0.7662,-3.29117 l 2.3683,-9.73423 2.0199,0 -4.1618,15.14986 -1.9329,0 -3.1867,-11.54523 q -0.4005,-1.44534 -0.4702,-1.77618 -0.2438,1.04482 -0.4528,1.77618 l -3.2215,11.54523 -2.0374,0 z m 17.0132,0 0,-15.14986 10.9706,0 0,1.77618 -8.9681,0 0,4.64947 8.3934,0 0,1.77618 -8.3934,0 0,5.15444 9.3163,0 0,1.79359 -11.3188,0 z m 13.8612,0 0,-15.14986 6.7217,0 q 2.02,0 3.0735,0.40052 1.0535,0.40049 1.6804,1.43662 0.6269,1.03613 0.6269,2.28991 0,1.61944 -1.0361,2.72522 -1.0361,1.10578 -3.2302,1.40178 0.801,0.38311 1.2189,0.74882 0.8707,0.81842 1.6543,2.01998 l 2.6469,4.12701 -2.525,0 -2.0026,-3.15185 q -0.8881,-1.35827 -1.454,-2.08963 -0.566,-0.73139 -1.0187,-1.01874 -0.4528,-0.28731 -0.9055,-0.39178 -0.3483,-0.087 -1.1319,-0.087 l -2.316,0 0,6.73907 -2.0026,0 z m 2.0026,-8.46302 4.3012,0 q 1.3756,0 2.1505,-0.28733 0.775,-0.28732 1.1842,-0.91421 0.4092,-0.62689 0.4092,-1.35825 0,-1.07966 -0.7836,-1.7675 -0.7836,-0.68784 -2.4728,-0.68784 l -4.7887,0 0,5.01513 z m 12.8861,8.46302 0,-15.14986 2.0026,0 0,13.35627 7.4704,0 0,1.79359 -9.473,0 z m 11.9806,0 0,-15.14986 2.0199,0 0,15.14986 -2.0199,0 z m 5.433,0 0,-15.14986 2.0548,0 7.9581,11.89352 0,-11.89352 1.9155,0 0,15.14986 -2.0548,0 -7.9581,-11.91094 0,11.91094 -1.9155,0 z m 15.0628,0 0,-15.14986 10.9706,0 0,1.77618 -8.968,0 0,4.64947 8.3934,0 0,1.77618 -8.3934,0 0,5.15444 9.3163,0 0,1.79359 -11.3189,0 z m 19.9386,0 0,-15.14986 2.02,0 0,15.14986 -2.02,0 z m 16.2644,-5.31114 2.0026,0.50497 q -0.6269,2.47275 -2.2638,3.77004 -1.6369,1.29736 -4.0052,1.29736 -2.4553,0 -3.9877,-1.0013 -1.5324,-1.0013 -2.3334,-2.89066 -0.801,-1.88937 -0.801,-4.06609 0,-2.36826 0.8968,-4.12703 0.8968,-1.7588 2.5685,-2.673 1.6717,-0.9142 3.6743,-0.9142 2.2811,0 3.831,1.15799 1.5498,1.158 2.1592,3.24763 l -1.9677,0.4702 q -0.5224,-1.65432 -1.5324,-2.41183 -1.01,-0.75746 -2.525,-0.75746 -1.7413,0 -2.9168,0.83585 -1.1754,0.83586 -1.6542,2.25509 -0.4789,1.41917 -0.4789,2.91676 0,1.93292 0.5659,3.36954 0.566,1.43662 1.7588,2.1506 1.1928,0.71393 2.5685,0.71393 1.6891,0 2.8558,-0.96647 1.1668,-0.96643 1.5847,-2.88192 z" />
      <path
         style="fill:#00ff00;fill-rule:nonzero;stroke:#073763;stroke-width:2.22894621;stroke-linecap:butt;stroke-linejoin:round"
         inkscape:connector-curvature="0"
         id="path4414"
         d="m 1416.027,571.07613 17.6385,-17.6385 17.6385,17.6385 -8.8193,0 0,111.30693 8.8193,0 -17.6385,17.63848 -17.6385,-17.63848 8.8193,0 0,-111.30693 z" />
      <path
         style="fill:#d9ead3;fill-rule:nonzero;stroke:#073763;stroke-width:2.22894621;stroke-linecap:butt;stroke-linejoin:round"
         inkscape:connector-curvature="0"
         id="path4416"
         d="m 1564.6608,710.95124 0,0 c 0,-16.01312 12.9812,-28.99435 28.9944,-28.99435 l 115.9742,0 0,0 c 7.6899,0 15.0647,3.0547 20.5022,8.49225 5.4375,5.43747 8.4923,12.81235 8.4923,20.5021 l 0,209.44962 c 0,16.0132 -12.9813,28.99447 -28.9945,28.99447 l -115.9742,0 c -16.0132,0 -28.9944,-12.98127 -28.9944,-28.99447 z" />
      <path
         style="fill:#000000;fill-rule:nonzero"
         inkscape:connector-curvature="0"
         id="path4418"
         d="m 1629.5209,822.91456 0,-15.14985 3.03,0 3.5872,10.7268 q 0.4876,1.49755 0.714,2.24637 0.2612,-0.83586 0.8184,-2.43791 l 3.6221,-10.53526 2.6991,0 0,15.14985 -1.9329,0 0,-12.69452 -4.4057,12.69452 -1.811,0 -4.3882,-12.90349 0,12.90349 -1.933,0 z m 28.2101,-5.31114 2.0026,0.50497 q -0.6269,2.47276 -2.2638,3.77007 -1.6368,1.29733 -4.0051,1.29733 -2.4553,0 -3.9877,-1.00129 -1.5324,-1.00131 -2.3335,-2.89068 -0.801,-1.88936 -0.801,-4.06607 0,-2.36826 0.8968,-4.12704 0.8968,-1.7588 2.5685,-2.673 1.6717,-0.9142 3.6743,-0.9142 2.2812,0 3.831,1.158 1.5498,1.15799 2.1593,3.24762 l -1.9677,0.4702 q -0.5224,-1.65432 -1.5324,-2.4118 -1.01,-0.75749 -2.525,-0.75749 -1.7414,0 -2.9168,0.83585 -1.1754,0.83586 -1.6543,2.25509 -0.4789,1.41917 -0.4789,2.91677 0,1.93291 0.566,3.36953 0.5659,1.43663 1.7587,2.1506 1.1929,0.71393 2.5686,0.71393 1.6891,0 2.8558,-0.96644 1.1667,-0.96646 1.5846,-2.88195 z m 14.1399,-9.83871 2.0026,0 0,8.74162 q 0,2.29861 -0.5137,3.63947 -0.5137,1.34086 -1.8633,2.18544 -1.3495,0.84455 -3.5437,0.84455 -2.1244,0 -3.4827,-0.73139 -1.3582,-0.73136 -1.9329,-2.12445 -0.5746,-1.39309 -0.5746,-3.81362 l 0,-8.74162 2.0025,0 0,8.74162 q 0,1.96776 0.3657,2.90811 0.3657,0.94033 1.2625,1.44533 0.8968,0.505 2.1854,0.505 2.2115,0 3.1519,-1.00129 0.9403,-1.00131 0.9403,-3.85715 l 0,-8.74162 z" />
      <path
         style="fill:#00ff00;fill-rule:nonzero;stroke:#073763;stroke-width:2.22894621;stroke-linecap:butt;stroke-linejoin:round"
         inkscape:connector-curvature="0"
         id="path4420"
         d="m 1820.1004,696.86564 9.3722,0 0,-87.05177 18.7442,0 0,87.05177 9.3721,0 -18.7443,18.74417 z" />
      <path
         style="fill:#00ff00;fill-rule:nonzero;stroke:#073763;stroke-width:2.22894621;stroke-linecap:butt;stroke-linejoin:round"
         inkscape:connector-curvature="0"
         id="path4422"
         d="m 1863.2811,696.85338 9.3722,0 0,-126.71642 18.7442,0 0,126.71642 9.3721,0 -18.7442,18.74425 z" />
      <path
         style="fill:#00ff00;fill-rule:nonzero;stroke:#073763;stroke-width:2.22894621;stroke-linecap:butt;stroke-linejoin:round"
         inkscape:connector-curvature="0"
         id="path4424"
         d="m 1774.0063,696.85873 9.3721,0 0,-46.2638 18.7442,0 0,46.2638 9.3722,0 -18.7443,18.74421 z" />
      <path
         style="fill:#00ff00;fill-rule:nonzero;stroke:#073763;stroke-width:2.22894621;stroke-linecap:butt;stroke-linejoin:round"
         inkscape:connector-curvature="0"
         id="path4426"
         d="m 1664.8639,629.09398 9.3721,0 0,52.86291 18.7442,0 0,-52.86291 9.3721,0 -18.7442,-18.74422 z" />
      <path
         style="fill:#00ff00;fill-rule:nonzero;stroke:#073763;stroke-width:2.22894621;stroke-linecap:butt;stroke-linejoin:round"
         inkscape:connector-curvature="0"
         id="path4428"
         d="m 1585.6047,589.42926 9.3721,0 0,92.52763 18.7442,0 0,-92.52763 9.3721,0 -18.7442,-18.74422 z" />
      <path
         style="fill:#00ff00;fill-rule:nonzero;stroke:#073763;stroke-width:2.22894621;stroke-linecap:butt;stroke-linejoin:round"
         inkscape:connector-curvature="0"
         id="path4430"
         d="m 1447.9944,834.3586 -15.9888,-15.9888 7.9944,0 0,-17.6209 -7.9944,0 15.9888,-15.9888 15.9887,15.9888 -7.9944,0 0,17.6209 7.9944,0 z" />
      <path
         style="fill:#00ff00;fill-rule:nonzero;stroke:#073763;stroke-width:2.22894621;stroke-linecap:butt;stroke-linejoin:round"
         inkscape:connector-curvature="0"
         id="path4432"
         d="m 1531.7553,885.37687 15.9888,-15.98868 0,7.99434 17.6209,0 0,-7.99434 15.9888,15.98868 -15.9888,15.98875 0,-7.99435 -17.6209,0 0,7.99435 z" />
      <path
         style="fill:#00ff00;fill-rule:nonzero;stroke:#073763;stroke-width:2.22894621;stroke-linecap:butt;stroke-linejoin:round"
         inkscape:connector-curvature="0"
         id="path4434"
         d="m 1723.3069,768.34512 15.9888,-15.98878 0,7.99443 15.4096,0 0,-7.99443 15.9887,15.98878 -15.9887,15.98872 0,-7.99434 -15.4096,0 0,7.99434 z" />
      <path
         style="fill:#00ff00;fill-rule:nonzero;stroke:#073763;stroke-width:2.22894621;stroke-linecap:butt;stroke-linejoin:round"
         inkscape:connector-curvature="0"
         id="path4436"
         d="m 1461.4103,649.33024 17.6385,-17.63847 17.6386,17.63847 -8.8193,0 0,33.06564 8.8193,0 -17.6386,17.63854 -17.6385,-17.63854 8.8193,0 0,-33.06564 z" />
    </g>
  </g>
</svg>
